<?xml version="1.0" encoding="utf-8"?>
<!-- Generator: Adobe Illustrator 18.1.1, SVG Export Plug-In . SVG Version: 6.00 Build 0)  -->
<!DOCTYPE svg PUBLIC "-//W3C//DTD SVG 1.1//EN" "http://www.w3.org/Graphics/SVG/1.1/DTD/svg11.dtd">
<svg version="1.1" id="Layer_1" xmlns="http://www.w3.org/2000/svg" xmlns:xlink="http://www.w3.org/1999/xlink" x="0px" y="0px"
	 viewBox="0 0 228.7 228" style="enable-background:new 0 0 228.7 228;" xml:space="preserve">
<style type="text/css">
	.st0{fill:#BB9D6E;}
</style>
<g id="Your_Icon_2_">
	<path class="st0" d="M38.7,221.2c2.6,0.2,5-1.6,5.5-4.1c-0.2,2.8,1.8,5.3,4.7,5.6c2.8,0.3,5.3-1.8,5.6-4.7c0.3-3,1-10.7,1.3-13.5
		c0.1,0,0.1,0,0.2,0c18.3,1.5,39-12.1,43.1-41.2c1.8-12.5-1.4-25-9.1-35.2c-5.2-6.9-12-12.1-19.7-15.3c0.6-1.1,1-2.3,1.2-3.7
		c0.5-3.3-0.4-6.6-2.4-9.3c-2-2.7-4.9-4.4-8.3-4.9c-6.2-0.9-12.1,3-13.8,9c-0.2,0.5-0.3,1.1-0.4,1.7c-0.2,1.3-0.1,2.6,0.1,3.8
		c-1.4,0.2-2.7,0.4-4,0.6l-3.3-8.9c3.3-2.3,5.8-5.7,7-9.7c0.6-2,0.8-4,0.7-6.1l-1.5-22.7c-0.1-2.1-0.7-4.2-1.5-6l12.2-10
		c0.3,0.2,0.6,0.3,0.9,0.5c4.3,2.1,9.2,2.4,13.7,0.9l21.6-7.3c5.6-1.9,9.9-6.4,11.5-12.1c0,0,0-0.1,0-0.1l10.7-0.2
		c1.8,4.4,5.2,8,9.8,9.9l21.1,8.7c4.4,1.8,9.2,1.8,13.6,0l4.7,6c-1,1.5-1.8,3.2-2.3,4.9c-0.7,2.4-0.9,4.9-0.5,7.4l3.1,22.6
		c0.9,6.7,5.5,12.1,11.5,14.4l-0.3,7.5c-15.8,0.5-31.1,8.9-39.6,23.5c-2.7,4.7-4.6,9.3-5.9,13.7c-5.6,19.8,1.9,37,14.4,45.3
		c0.1,0,0.1,0.1,0.2,0.1c-1.5,2.4-5.6,9-7.2,11.6c-1.5,2.4-0.8,5.6,1.6,7.1c2.4,1.5,5.6,0.8,7.1-1.6l0,0c-0.2,0.3-0.3,0.7-0.4,1
		c-0.6,2.1,0.2,4.5,2.2,5.8c2.4,1.5,5.6,0.8,7.1-1.6c0.6-1,5.7-9,7.4-11.9c0.1,0,0.1,0,0.2,0.1c16.4,8.3,40.7,3.4,55.4-21.9
		c11.1-19.1,7.3-42.7-7.7-57.5c0.9-0.8,1.8-1.8,2.5-3c0.5-0.9,0.9-1.9,1.2-2.9c1.6-5.5-0.8-11.4-5.8-14.3c-6-3.5-13.7-1.4-17.1,4.6
		c-0.5,0.9-0.9,1.9-1.2,2.9c-0.1,0.2-0.1,0.5-0.1,0.8c-1.3-0.4-2.6-0.7-3.9-0.9l0.3-7.6c6.4-1.4,11.6-6.2,13.4-12.6
		c0.7-2.4,0.9-4.9,0.5-7.4l-3.1-22.6c-1.3-9.8-10.4-16.7-20.3-15.4c-1.6,0.2-3.2,0.7-4.7,1.3l-4.6-5.8c0.7-1.1,1.4-2.2,1.9-3.4
		c3.8-9.3-0.7-19.7-9.8-23.5L138.2,5c-4.4-1.8-9.3-1.8-13.8,0c-4.4,1.8-7.9,5.3-9.7,9.8c-0.3,0.6-0.5,1.3-0.7,1.9
		c-0.1,0.4-0.2,0.9-0.3,1.3l-10,0.2c0-0.1,0-0.2-0.1-0.3c-1.5-4.5-4.8-8.2-9.1-10.3c-4.3-2.1-9.2-2.4-13.7-0.9L59.3,14
		c-5.6,1.9-9.9,6.4-11.5,12.1c-1,3.5-0.9,7.2,0.3,10.7c0.3,0.8,0.7,1.7,1.1,2.4l-11.7,9.6c-3.2-2.1-7-3.1-11-2.9
		c-7.6,0.5-14,5.7-16.1,13c-0.6,2-0.8,4-0.7,6.1l1.5,22.7c0.6,9.7,8.9,17.1,18.5,16.8l3.2,8.7c-12.6,5.6-22.5,16.5-26.4,30.3
		c-0.6,2.1-1,4.2-1.4,6.4c-4.1,29,12,47.9,30.1,51.5c0.1,0,0.2,0,0.2,0.1c-0.4,3.4-1.3,12.8-1.4,14C33.8,218.5,35.8,221,38.7,221.2z
		 M209,175.7c-8.7,15-25.9,26-41.9,17.9c-4.9-2.5-10.7-1.1-13.3,3.1c2.4-4.3,0.7-10-3.9-13.1c-15-9.9-14-30.2-5.3-45.3
		c10.3-17.7,33.1-23.8,50.8-13.5C213.2,135.2,219.2,158,209,175.7z M199.8,113c0.6-1.1,2-1.4,3.1-0.8c0.9,0.5,1.3,1.6,1,2.5
		c-0.1,0.2-0.1,0.4-0.2,0.5c-0.6,1.1-2,1.4-3.1,0.8c0,0,0,0,0,0c0,0,0,0,0,0C199.6,115.4,199.2,114,199.8,113z M186.5,61.8l3.1,22.6
		c0.1,1.1,0.1,2.1-0.2,3.1c-0.5,1.8-1.6,3.3-3.1,4.3l0.2-7.3c0.1-2.8-2.1-5.2-5-5.3c-2.4-0.1-4.5,1.5-5.1,3.7
		c-0.1,0.4-0.2,0.8-0.2,1.2l-0.2,6.1c-0.9-1.1-1.5-2.3-1.7-3.8l-3.1-22.6c-0.1-0.5-0.1-1.1-0.1-1.6l3.5,4.5c1.8,2.2,5,2.6,7.2,0.9
		c2.2-1.8,2.6-5,0.9-7.2l-4.1-5.2C182.5,55.1,185.9,57.9,186.5,61.8z M128.4,14.5c1.9-0.8,4-0.8,5.9,0l21.1,8.7
		c3.3,1.4,5.2,4.8,4.7,8.3l-2.5-3.1c-1.8-2.2-5-2.6-7.2-0.9c-0.9,0.7-1.5,1.6-1.8,2.6c-0.4,1.5-0.2,3.3,0.9,4.6L152,38
		c-0.9,0-1.7-0.2-2.5-0.5l-21.1-8.7c-0.5-0.2-0.9-0.4-1.3-0.7L131,28c2.8-0.1,5.1-2.4,5-5.2c-0.1-2.8-2.4-5.1-5.2-5l-6.1,0.1
		C125.5,16.3,126.8,15.2,128.4,14.5z M62.6,23.7l21.6-7.3c1.9-0.7,4-0.5,5.9,0.4c0.9,0.4,1.6,1,2.2,1.7l-4.1,0.1
		c-2.3,0-4.2,1.6-4.8,3.7c-0.1,0.5-0.2,1-0.2,1.5c0.1,2.8,2.4,5.1,5.2,5l4-0.1c-0.9,1-2,1.8-3.3,2.2l-21.6,7.3
		c-0.5,0.2-1,0.3-1.5,0.3l3.7-3.1c2.2-1.8,2.5-5.1,0.7-7.2c-1.8-2.2-5-2.5-7.2-0.7l-5.7,4.7C56.9,28.7,59.1,24.9,62.6,23.7z
		 M21.4,87.2L20,64.4c-0.3-4.2,3.1-7.9,7.2-8.2c0.4,0,0.9,0,1.3,0L25,59.2c-0.8,0.7-1.4,1.6-1.7,2.6c-0.4,1.6-0.1,3.3,1,4.7
		c1.8,2.2,5,2.5,7.2,0.7l3.8-3.2l1.5,22.2c0.1,0.9,0,1.8-0.3,2.6c-0.2,0.7-0.5,1.4-0.9,2l-1.8-5c-1-2.7-3.9-4-6.6-3.1
		c-1.6,0.6-2.7,1.9-3.2,3.4c-0.3,1-0.3,2.1,0.1,3.2l1.5,4.1C23.3,92.3,21.6,90,21.4,87.2z M57.2,108.9c-0.2-0.3-0.5-0.9-0.4-1.7
		c0.2-1.2,1.3-2.1,2.5-1.9c0.8,0.1,1.3,0.6,1.5,0.9c0.2,0.3,0.5,0.9,0.4,1.7c0,0.1,0,0.2-0.1,0.3c-0.3,1.1-1.4,1.7-2.5,1.6l0,0
		c0,0,0,0,0,0C57.9,109.6,57.5,109.1,57.2,108.9z M15.3,151.5c2.9-20.3,21.7-34.5,42-31.6c9.8,1.4,18.5,6.5,24.5,14.4
		c6,7.9,8.5,17.7,7.1,27.5c-3.2,22.7-18.6,33.5-32.1,32.3c-5.5-0.4-10.3,3-11.1,7.9c0.6-4.9-3.1-9.6-8.5-10.6
		C19.6,188,12.9,168.7,15.3,151.5z"/>
</g>
<g>
</g>
<g>
</g>
<g>
</g>
<g>
</g>
<g>
</g>
<g>
</g>
</svg>
