<?xml version="1.0" encoding="utf-8"?>
<!-- Generator: Adobe Illustrator 18.1.1, SVG Export Plug-In . SVG Version: 6.00 Build 0)  -->
<!DOCTYPE svg PUBLIC "-//W3C//DTD SVG 1.1//EN" "http://www.w3.org/Graphics/SVG/1.1/DTD/svg11.dtd">
<svg version="1.1" id="Layer_1" xmlns="http://www.w3.org/2000/svg" xmlns:xlink="http://www.w3.org/1999/xlink" x="0px" y="0px"
	 viewBox="0 0 250 137.2" style="enable-background:new 0 0 250 137.2;" xml:space="preserve">
<style type="text/css">
	.st0{fill:#BB9D6E;}
</style>
<g>
	<path class="st0" d="M187,79.4C187.1,79.4,187.1,79.4,187,79.4c11.7-3.5,23.7-8.2,35.3-14.6c18.6-10.8,28.1,0.4,21.2,17.4
		c-5.9,16.1-37.2,46-64.5,52.9c-10.5-7.4-31-12.4-54.6-12.5c-23.7,0.1-44.2,5.1-54.6,12.5c-27.3-6.8-58.6-36.8-64.5-52.9
		c-6.9-17,2.6-28.2,21.2-17.4C38.3,71.2,50.4,76,62,79.5c25,7.5,47.9,9.4,59.9,9.4l6.6,0C140.4,88.7,162.8,86.7,187,79.4z"/>
	<g id="XMLID_1_">
		<path class="st0" d="M153.3,3.8c9.7,4.9,25.5,50.6,31.7,69.4c-23.5,6.8-44.9,8.7-56.6,8.8l-6.6,0c-11.7,0-33.7-1.8-57.9-8.8
			C70.1,54.5,86,8.7,95.7,3.8c11.2-5.6,20.7,3.7,28.4,4.6h-1.5c0.6,0.1,1.2,0.1,1.9,0c0.6,0.1,1.3,0,1.9,0h-1.5
			C132.6,7.5,142.2-1.8,153.3,3.8z M149.5,39.3c0-2-1.6-3.7-3.7-3.7c-1.9,0-3.4,1.4-3.6,3.2l-11.3-1.6l-5-10.1
			c1.3-0.5,2.3-1.9,2.3-3.4c0-2-1.6-3.7-3.7-3.7c-2,0-3.7,1.6-3.7,3.7c0,1.6,1,2.9,2.3,3.4l-5,10.1l-11.4,1.7
			c-0.2-1.8-1.8-3.2-3.6-3.2c-2,0-3.7,1.6-3.7,3.7c0,2,1.6,3.7,3.7,3.7c1.2,0,2.4-0.6,3-1.6l8.1,7.9l-2,11.8
			c-0.5-0.2-0.9-0.3-1.5-0.3c-2,0-3.7,1.6-3.7,3.7c0,2,1.6,3.7,3.7,3.7c2,0,3.7-1.6,3.7-3.7c0-0.8-0.2-1.5-0.6-2.1l10.7-5.6
			l10.7,5.6c-0.4,0.6-0.6,1.3-0.6,2.1c0,2,1.6,3.7,3.7,3.7c2,0,3.7-1.6,3.7-3.7c0-2-1.7-3.7-3.7-3.7c-0.5,0-1,0.1-1.4,0.3l-2-11.8
			l8-7.8c0.7,0.9,1.8,1.6,3,1.6C147.9,43,149.5,41.4,149.5,39.3z"/>
	</g>
</g>
<g>
</g>
<g>
</g>
<g>
</g>
<g>
</g>
<g>
</g>
<g>
</g>
</svg>
