<?xml version="1.0" encoding="utf-8"?>
<!-- Generator: Adobe Illustrator 18.1.1, SVG Export Plug-In . SVG Version: 6.00 Build 0)  -->
<!DOCTYPE svg PUBLIC "-//W3C//DTD SVG 1.1//EN" "http://www.w3.org/Graphics/SVG/1.1/DTD/svg11.dtd">
<svg version="1.1" id="Layer_1" xmlns="http://www.w3.org/2000/svg" xmlns:xlink="http://www.w3.org/1999/xlink" x="0px" y="0px"
	 viewBox="0 0 215 245.4" style="enable-background:new 0 0 215 245.4;" xml:space="preserve">
<style type="text/css">
	.st0{fill:#87724F;}
</style>
<g id="Your_Icon">
	<path class="st0" d="M202.9,168.9c-1.7,0-3.2,0.6-4.5,1.4l-28.2-47.6l28.2-47.6c1.3,0.8,2.8,1.4,4.5,1.4c4.9,0,9-4,9-9c0-5-4-9-9-9
		c-5,0-9,4-9,9c0,0,0,0.1,0,0.1l-55.2,0.7l-27.1-48.2c2.7-1.5,4.6-4.4,4.6-7.7c0-5-4-9-9-9c-4.9,0-9,4-9,9c0,3.4,1.9,6.2,4.7,7.7
		L76,68.3l-55.2-0.7c0,0,0-0.1,0-0.1c0-5-4-9-9-9c-5,0-9,4-9,9c0,5,4,9,9,9c1.7,0,3.2-0.6,4.5-1.4l28.2,47.6l-28.2,47.6
		c-1.4-0.8-2.8-1.4-4.5-1.4c-5,0-9,4-9,9c0,5,4,9,9,9c4.9,0,9-4,9-9c0,0,0-0.1,0-0.1L76,177l27.1,48.2c-2.7,1.5-4.7,4.4-4.7,7.7
		c0,5,4,9,9,9c5,0,9-4,9-9c0-3.4-1.9-6.2-4.6-7.7l27.1-48.2l55.2,0.7c0,0,0,0.1,0,0.1c0,5,4,9,9,9c4.9,0,9-4,9-9
		C211.9,172.9,207.8,168.9,202.9,168.9z"/>
</g>
<g>
</g>
<g>
</g>
<g>
</g>
<g>
</g>
<g>
</g>
<g>
</g>
</svg>
